#!OML:ASF H:\ManfredETheater\Project 1\Capture day 1\Session 1\subject.ASF
:FULLY-SPECIFIED
:DEGREES
61
root 11.2595 16.2998 -12.7226 14.3085 0.320859 6.72833
lowerback 14.758 -0.416665 -0.491346
upperback 1.02732 -0.724137 -1.23673
thorax -7.20275 -0.355088 -0.886844
lowerneck -9.48339 -13.0535 -12.9403
upperneck 0.226469 -16.6584 13.9926
head 3.86681 -7.93998 4.99563
rclavicle -1.98785e-016 3.57812e-015
rhumerus -44.6078 11.8297 -91.2328
rradius 113.123
rwrist -12.5001
rhand -20.5296 13.5934
rfingers 7.12502
rthumb 5.82853 -16.3064
lclavicle -1.98785e-016 3.57812e-015
lhumerus -65.5301 -7.37047 94.4654
lradius 102.169
lwrist 14.6674
lhand -18.6209 -12.412
lfingers 7.12502
lthumb 7.67111 17.4289
rfemur -16.1211 -8.41129 38.8869
rtibia 45.819
rfoot -18.4643 -23.688
rtoes -24.5314
lfemur -56.918 0.750947 -6.43835
ltibia 72.0137
lfoot -11.3784 -5.0403
ltoes -18.5638
62
root 11.1335 16.384 -12.1856 14.2065 -0.0261578 6.66482
lowerback 14.5274 -0.271755 -0.41226
upperback 1.04908 -0.523361 -1.32304
thorax -7.04989 -0.261726 -1.06507
lowerneck -9.52639 -13.1792 -13.0628
upperneck 0.55407 -16.8471 14.0885
head 4.01654 -8.0224 5.0048
rclavicle 1.35174e-014 -1.47101e-014
rhumerus -44.6815 12.1662 -91.3437
rradius 116.006
rwrist -12.2258
rhand -20.4324 14.2146
rfingers 7.12502
rthumb 5.92232 -15.6826
lclavicle 1.35174e-014 -1.47101e-014
lhumerus -66.7338 -7.05278 94.3791
lradius 103.202
lwrist 14.2607
lhand -18.4506 -12.5772
lfingers 7.12502
lthumb 7.83545 17.2576
rfemur -13.8551 -7.83268 38.6077
rtibia 44.8304
rfoot -15.0443 -22.3575
rtoes -24.7082
lfemur -57.1505 -0.0902793 -6.199
ltibia 67.5287
lfoot -10.3954 -6.03306
ltoes -20.1689
63
root 11.0079 16.4619 -11.6473 14.0554 -0.402723 6.59221
lowerback 14.3352 -0.134463 -0.355188
upperback 1.07306 -0.335179 -1.38851
thorax -6.9148 -0.17306 -1.20464
lowerneck -9.61857 -13.2719 -13.1477
upperneck 0.964104 -16.9929 14.1141
head 4.1838 -8.08207 4.98806
rclavicle -1.25234e-014 3.18055e-015
rhumerus -44.7644 12.4336 -91.4967
rradius 118.325
rwrist -12.3555
rhand -20.4663 14.6827
rfingers 7.12502
rthumb 5.88963 -15.2155
lclavicle -1.25234e-014 3.18055e-015
lhumerus -67.8264 -6.59465 94.2685
lradius 104.151
lwrist 13.8809
lhand -18.2952 -12.8012
lfingers 7.12502
lthumb 7.98543 17.0279
rfemur -11.8436 -7.33113 38.3344
rtibia 44.2451
rfoot -11.375 -20.8796
rtoes -23.5449
lfemur -57.0497 -1.07588 -5.72126
ltibia 62.961
lfoot -9.11653 -7.01609
ltoes -21.9035
64
root 10.884 16.5314 -11.1084 13.8676 -0.829554 6.48967
lowerback 14.1727 -0.00253143 -0.301695
upperback 1.09411 -0.153605 -1.43309
thorax -6.79854 -0.0869218 -1.31762
lowerneck -9.75659 -13.3299 -13.184
upperneck 1.4481 -17.0942 14.0746
head 4.36486 -8.1185 4.94639
rclavicle 1.19271e-015 7.55382e-015
rhumerus -44.8747 12.6358 -91.6988
rradius 120.036
rwrist -12.7959
rhand -20.6009 14.9986
rfingers 7.12502
rthumb 5.75964 -14.9031
lclavicle 1.19271e-015 7.55382e-015
lhumerus -68.7997 -6.0401 94.1485
lradius 105.031
lwrist 13.5449
lhand -18.0902 -13.038
lfingers 7.12502
lthumb 8.18333 16.7835
rfemur -10.1429 -6.94116 38.0792
rtibia 44.1728
rfoot -7.80721 -19.301
rtoes -21.5038
lfemur -56.6613 -2.19703 -4.97763
ltibia 58.4509
lfoot -7.67968 -7.87085
ltoes -23.5556
65
root 10.762 16.5909 -10.5701 13.6788 -1.32259 6.33337
lowerback 14.0092 0.123909 -0.22928
upperback 1.10256 0.0250421 -1.45414
thorax -6.69464 -0.00225427 -1.4149
lowerneck -9.94207 -13.3551 -13.1704
upperneck 1.99695 -17.1539 13.9844
head 4.55898 -8.13272 4.88393
rclavicle 9.74045e-015 -1.59028e-015
rhumerus -45.0262 12.7641 -91.9505
rradius 121.11
rwrist -13.3832
rhand -20.752 15.1603
rfingers 7.12502
rthumb 5.61384 -14.7454
lclavicle 9.74045e-015 -1.59028e-015
lhumerus -69.6446 -5.43853 94.0374
lradius 105.859
lwrist 13.2375
lhand -17.8332 -13.2787
lfingers 7.12502
lthumb 8.4313 16.533
rfemur -8.831 -6.69583 37.8584
rtibia 44.7135
rfoot -4.64025 -17.7013
rtoes -18.9711
lfemur -56.0663 -3.42898 -3.95418
ltibia 54.1526
lfoot -6.24061 -8.44624
ltoes -24.9868
66
root 10.6421 16.6395 -10.0327 13.5051 -1.89361 6.11536
lowerback 13.8287 0.243639 -0.128705
upperback 1.09712 0.200451 -1.45317
thorax -6.59542 0.080494 -1.50317
lowerneck -10.1656 -13.3468 -13.1091
upperneck 2.58628 -17.1711 13.8645
head 4.75971 -8.1245 4.80881
rclavicle -3.97569e-016 -2.26615e-014
rhumerus -45.2407 12.8103 -92.2554
rradius 121.541
rwrist -13.9164
rhand -20.8745 15.1916
rfingers 7.12502
rthumb 5.49548 -14.7171
lclavicle -3.97569e-016 -2.26615e-014
lhumerus -70.3409 -4.84239 93.9562
lradius 106.643
lwrist 12.9248
lhand -17.5212 -13.5076
lfingers 7.12502
lthumb 8.73236 16.2918
rfemur -7.96238 -6.63405 37.6655
rtibia 45.9645
rfoot -2.15338 -16.2176
rtoes -16.4801
lfemur -55.334 -4.73779 -2.68058
ltibia 50.2478
lfoot -4.95066 -8.59472
ltoes -26.2182
67
root 10.5243 16.6771 -9.49711 13.3537 -2.57768 5.83333
lowerback 13.627 0.363539 -0.00807342
upperback 1.08226 0.380285 -1.43059
thorax -6.49366 0.165324 -1.57967
lowerneck -10.4252 -13.3067 -13.0153
upperneck 3.19043 -17.1467 13.7411
head 4.9632 -8.09396 4.73187
rclavicle -6.36111e-015 -5.1684e-015
rhumerus -45.5253 12.7759 -92.6096
rradius 121.337
rwrist -14.2116
rhand -20.941 15.1186
rfingers 7.12502
rthumb 5.43133 -14.7918
lclavicle -6.36111e-015 -5.1684e-015
lhumerus -70.8602 -4.29719 93.9313
lradius 107.386
lwrist 12.5709
lhand -17.1618 -13.7057
lfingers 7.12502
lthumb 9.07917 16.0789
rfemur -7.53936 -6.75384 37.4839
rtibia 47.9147
rfoot -0.463739 -14.9442
rtoes -14.5177
lfemur -54.4908 -6.04105 -1.22978
ltibia 46.856
lfoot -3.88081 -8.27681
ltoes -27.216
68
root 10.412 16.6952 -8.96472 13.2308 -3.38561 5.50472
lowerback 13.4012 0.480069 0.119421
upperback 1.06202 0.557406 -1.39083
thorax -6.38365 0.249126 -1.64005
lowerneck -10.7084 -13.2347 -12.8989
upperneck 3.77233 -17.0799 13.6349
head 5.159 -8.04098 4.66267
rclavicle -1.11319e-014 -1.86858e-014
rhumerus -45.8906 12.6483 -93.0141
rradius 120.537
rwrist -14.1648
rhand -20.9267 14.9842
rfingers 7.12502
rthumb 5.4451 -14.9259
lclavicle -1.11319e-014 -1.86858e-014
lhumerus -71.1753 -3.84343 93.9896
lradius 108.092
lwrist 12.1541
lhand -16.7939 -13.8849
lfingers 7.12502
lthumb 9.4342 15.8839
rfemur -7.57415 -7.05748 37.282
rtibia 50.5641
rfoot 0.405572 -13.9753
rtoes -13.4265
lfemur -53.6043 -7.24394 0.270617
ltibia 44.115
lfoot -3.02346 -7.59223
ltoes -27.9696
69
root 10.2975 16.7132 -8.43398 13.1148 -4.35438 5.15372
lowerback 13.1707 0.598842 0.229199
upperback 1.04617 0.734765 -1.34324
thorax -6.26607 0.333913 -1.68096
lowerneck -10.9988 -13.1249 -12.7672
upperneck 4.30296 -16.9617 13.5552
head 5.336 -7.96212 4.60808
rclavicle -2.78299e-015 1.03368e-014
rhumerus -46.3421 12.4267 -93.4712
rradius 119.192
rwrist -13.7732
rhand -20.8483 14.794
rfingers 7.12502
rthumb 5.52077 -15.1141
lclavicle -2.78299e-015 1.03368e-014
lhumerus -71.2645 -3.51249 94.1497
lradius 108.769
lwrist 11.6894
lhand -16.4372 -14.036
lfingers 7.12502
lthumb 9.77839 15.717
rfemur -7.99568 -7.50447 37.0196
rtibia 53.7788
rfoot 0.621456 -13.3699
rtoes -13.1787
lfemur -52.5538 -8.24229 1.66754
ltibia 42.0351
lfoot -2.36372 -6.74011
ltoes -28.5366
70
root 10.1853 16.7216 -7.90492 12.9746 -5.49607 4.8315
lowerback 12.954 0.714884 0.285651
upperback 1.04988 0.89985 -1.30128
thorax -6.1361 0.414397 -1.69432
lowerneck -11.2953 -12.9723 -12.6195
upperneck 4.75983 -16.7826 13.492
head 5.48461 -7.85369 4.56705
rclavicle 3.57812e-015 -3.97569e-016
rhumerus -46.8634 12.1198 -93.9673
rradius 117.363
rwrist -13.1468
rhand -20.7453 14.5859
rfingers 7.12502
rthumb 5.62023 -15.3196
lclavicle 3.57812e-015 -3.97569e-016
lhumerus -71.1063 -3.32313 94.4235
lradius 109.429
lwrist 11.2303
lhand -16.0915 -14.1362
lfingers 7.12502
lthumb 10.1119 15.6008
rfemur -8.76275 -8.07773 36.6292
rtibia 57.4994
rfoot 0.338432 -13.1367
rtoes -13.6403
lfemur -51.3284 -8.97337 2.79639
ltibia 40.6812
lfoot -1.99042 -5.88233
ltoes -28.9454
71
root 10.0751 16.7222 -7.37757 12.7867 -6.8435 4.57151
lowerback 12.7792 0.833015 0.253506
upperback 1.07063 1.05361 -1.27464
thorax -6.01304 0.49153 -1.6714
lowerneck -11.5673 -12.7666 -12.4506
upperneck 5.12691 -16.5287 13.4255
head 5.59067 -7.71161 4.53668
rclavicle 1.43125e-014 -7.55382e-015
rhumerus -47.4537 11.7452 -94.4919
rradius 115.106
rwrist -12.4544
rhand -20.683 14.3671
rfingers 7.12502
rthumb 5.68043 -15.5368
lclavicle 1.43125e-014 -7.55382e-015
lhumerus -70.713 -3.28794 94.8166
lradius 110.085
lwrist 10.8024
lhand -15.8589 -14.2648
lfingers 7.12502
lthumb 10.3363 15.4612
rfemur -9.81729 -8.71621 36.072
rtibia 61.5809
rfoot -0.261228 -13.2244
rtoes -14.6025
lfemur -49.8356 -9.39162 3.56098
ltibia 39.9794
lfoot -1.98341 -5.15645
ltoes -29.4172
72
root 9.96911 16.7085 -6.85335 12.5352 -8.37398 4.41269
lowerback 12.6755 0.939861 0.106182
upperback 1.10303 1.1745 -1.26956
thorax -5.92048 0.554942 -1.60108
lowerneck -11.8115 -12.4978 -12.2501
upperneck 5.40596 -16.1846 13.3267
head 5.64859 -7.53003 4.50849
rclavicle -1.09332e-014 5.56597e-015
rhumerus -48.1014 11.3127 -95.0142
rradius 112.486
rwrist -11.9022
rhand -20.6496 14.1447
rfingers 7.12502
rthumb 5.71269 -15.7583
lclavicle -1.09332e-014 5.56597e-015
lhumerus -70.0883 -3.40688 95.3126
lradius 110.748
lwrist 10.4684
lhand -15.6365 -14.292
lfingers 7.12502
lthumb 10.5508 15.4232
rfemur -11.1549 -9.40267 35.3293
rtibia 65.9495
rfoot -1.09536 -13.5267
rtoes -15.7664
lfemur -48.0861 -9.50028 3.91166
ltibia 39.8924
lfoot -2.44934 -4.69026
ltoes -30.1602
